<svg xmlns="http://www.w3.org/2000/svg" width="60" height="59"><path fill-rule="evenodd" fill="#AC9455" d="M59.233 49.524a1 1 0 0 1-1.226.706l-7.015-.025-.754 6.84c.137.532-.154 1.075-.65 1.213a.852.852 0 0 1-.531-.039.92.92 0 0 1-1.093-.189l-9.838-11.115a23.778 23.778 0 0 1-7.876 1.335c-3.127 0-6.107-.612-8.844-1.708L11.383 57.999a.901.901 0 0 1-1.079.189.834.834 0 0 1-.523.039c-.49-.137-.776-.68-.641-1.211l-.756-6.827-6.908.025a.988.988 0 0 1-.608-1.878.997.997 0 0 1 .227-.432l9.154-10.455A24.097 24.097 0 0 1 6.25 24.125C6.25 10.801 16.995 0 30.25 0s24 10.801 24 24.125c0 5.24-1.68 10.076-4.503 14.032l8.646 9.759c.118.125.186.275.231.433a.988.988 0 0 1 .609 1.175zM3.336 48.28l5.516-.017c.066-.017.132-.006.198-.008l.021-.001c.072-.001.143-.006.213.009.048.005.096-.006.144.006.424.114.677.529.662.986a.995.995 0 0 1-.016.212c-.003.013 0 .025-.003.038l.661 6.302 8.826-10.089a24.193 24.193 0 0 1-8.141-6.668l-8.081 9.23zm48.923-24.16c0-12.211-9.854-22.11-22.009-22.11-12.155 0-22.009 9.899-22.009 22.11 0 12.21 9.854 22.109 22.009 22.109 12.155 0 22.009-9.899 22.009-22.109zm-3.724 15.61a24.107 24.107 0 0 1-8.5 6.4l8.586 9.7.66-6.31c-.004-.013 0-.025-.003-.039a.921.921 0 0 1-.017-.211c-.015-.457.241-.874.671-.987.049-.013.097-.002.145-.006.073-.016.146-.011.221-.01l.017.001c.067.002.134-.009.201.008l5.605.016-7.586-8.562zM30 31a1 1 0 0 1-1-1V17.971l-1.021-.04c-.591.042-1.028-.353-.976-.884.052-.531.573-.995 1.164-1.038l1.496.059c.107-.038.218-.068.337-.068.244 0 .46.098.634.243a.755.755 0 0 1 .36.729c.001.01.006.018.006.028v13a1 1 0 0 1-1 1z"/></svg>