<svg xmlns="http://www.w3.org/2000/svg" width="67" height="67"><path fill-rule="evenodd" fill="#AC9455" d="M53.097 33.285v-1.756h13.895v1.756H53.097zM37.4 4.816l.236-1.74c13.085 1.78 23.729 12.12 25.883 25.146l-1.731.286C59.758 16.235 49.729 6.492 37.4 4.816zm21.457 23.379l-1.723.34c-1.937-9.82-9.876-17.491-19.756-19.089l.28-1.733c10.601 1.715 19.12 9.946 21.199 20.482zM32.618 0h1.755v13.895h-1.755V0zM9.868 28.535l-1.722-.34C10.223 17.666 18.737 9.436 29.331 7.716l.281 1.732c-9.873 1.603-17.808 9.274-19.744 19.087zm-4.653-.027l-1.732-.286c2.154-13.02 12.793-23.36 25.87-25.144l.237 1.739C17.268 6.498 7.245 16.24 5.215 28.508zm8.678 4.777H-.003v-1.756h13.896v1.756zM29.59 61.632l-.237 1.739A30.329 30.329 0 0 1 3.245 36.505l1.746-.187A28.575 28.575 0 0 0 29.59 61.632zM7.869 36.523L9.61 36.3c1.338 10.494 9.563 19.006 20.002 20.701l-.281 1.733C18.13 56.915 9.305 47.782 7.869 36.523zm26.504 30.472h-1.755V53.1h1.755v13.895zM20.57 32.407c0-7.127 5.798-12.926 12.926-12.926 7.127 0 12.925 5.799 12.925 12.926 0 7.128-5.798 12.927-12.925 12.927-7.128 0-12.926-5.799-12.926-12.927zm24.096 0c0-6.16-5.011-11.171-11.17-11.171-6.16 0-11.171 5.011-11.171 11.171 0 6.16 5.011 11.171 11.171 11.171 6.159 0 11.17-5.011 11.17-11.171zm12.726 3.894l1.741.221c-1.436 11.267-10.267 20.401-21.475 22.214l-.28-1.733c10.445-1.689 18.675-10.202 20.014-20.702zm4.62.017l1.745.187a30.324 30.324 0 0 1-26.121 26.868l-.236-1.739a28.574 28.574 0 0 0 24.612-25.316z"/></svg>