<svg xmlns="http://www.w3.org/2000/svg" width="56" height="65"><path fill-rule="evenodd" fill="#AC9455" d="M48.922 42.217l6.269 6.218-1.181 1.171-1.958-1.942c-5.56 4.927-12.592 7.707-19.984 7.904v7.774h20.03v1.657H10.367v-1.657h20.031v-7.756C13.56 55.144-.004 41.43-.004 24.624c0-7.664 2.853-14.955 8.008-20.652l-2.37-2.35L6.814.451l6.617 6.562C17.954 2.682 24.094.001 30.862.001c13.857 0 25.13 11.182 25.13 24.925 0 6.714-2.703 12.805-7.07 17.291zM9.186 5.145c-4.84 5.383-7.52 12.256-7.52 19.479 0 16.171 13.264 29.326 29.567 29.326 7.254 0 14.183-2.658 19.636-7.46l-3.154-3.128c-4.463 4.017-10.365 6.489-16.853 6.489-13.855 0-25.128-11.181-25.128-24.925 0-6.435 2.492-12.288 6.543-16.715L9.186 5.145zm9.639 2.486c-.061-.203-.45-.75-.683-1.076a10.909 10.909 0 0 1-.537-.807C11.451 9.947 7.404 16.974 7.404 24.926c0 6.998 3.145 13.269 8.09 17.538l.043-.048c-.292-1.4-.379-2.795.406-4.386.279-.564.701-1.182 1.148-1.835.856-1.254 1.922-2.814 1.795-3.91-.33-2.858-1.03-2.886-2.3-2.938-.804-.032-1.804-.072-2.701-.831-1.203-1.022-3.216-2.731-3.58-4.814-.095-.536-.204-3.934.516-4.835.13-.163.235-.289.326-.399.319-.386.438-.53.918-1.339.271-.456.639-.611.9-.661.721-.138 1.353.336 2.02.841.416.314.98.741 1.338.777.122-.089.34-.412.474-.61.311-.457.662-.977 1.21-1.267.638-.337.63-3.117.125-4.15a3.824 3.824 0 0 0-.406-.633c-.486-.654-.856-1.34-.051-2.531.343-.505.764-.754 1.043-.919.051-.03.115-.068.161-.098a1.495 1.495 0 0 0-.054-.247zm27.218-.413c-1.563-.179-3.025.79-4.572 1.828-1.5 1.005-3.051 2.046-4.861 2.138-.697.033-1.394-.072-2.068-.176-1.098-.168-2.134-.327-2.936.156-.676.407-.806.709-1.044 1.258-.16.37-.36.83-.756 1.351-.466.611-1.196.342-1.84.106-.571-.211-1.526-.561-1.795-.214a1.858 1.858 0 0 0-.246.391c.227.109.758.182 1.586.217a.84.84 0 0 1 .704.438.823.823 0 0 1-.023.823c-.252.406-.767.841-1.363 1.345-.374.316-.996.842-1.305 1.207.065-.003.148-.014.253-.045.314-.092.693-.317 1.06-.534.549-.327 1.117-.664 1.742-.752 1.004-.14 1.815.478 2.466.972.415.313.844.638 1.157.656.287.009.738-.115 1.175-.242.847-.248 1.807-.528 2.667-.108.561.277 1.035.911 1.271 1.698.23.766.185 1.506-.123 2.031-.657 1.115-2.443 1.839-3.895 2.144-.87.183-2.464.391-3.378-.263-.355-.254-.593-.51-.785-.716-.304-.327-.43-.462-.899-.536a4.61 4.61 0 0 0-1.822.108 2.599 2.599 0 0 0-.516.193c-1.974 1.032-3.587 3.596-3.254 5.177.2.945 1.138 1.483 2.786 1.601 2.21.156 4.716.333 5.482 3.763.235 1.056.189 2.279.144 3.461-.066 1.738-.134 3.536.694 4.643.391.521.763.766 1.087.726 1.556-.184 3.472-4.67 4.291-6.585.285-.668.511-1.196.684-1.511l.225-.408c.992-1.787 2.017-3.635 1.361-5.487-.069-.121-.297-.48-.451-.723-.633-.995-.748-1.174-.499-1.621a.892.892 0 0 1 .516-.43c.395-.13.725.035.922.134.027.014.056.03.085.043.22-.008.436-.009.641-.009.374-.002.94-.004 1.031-.1.007-.007.151-.168.111-.966-.016-.327-.123-.736-.218-1.096-.184-.705-.374-1.433.276-1.835.694-.428 1.419.191 1.95.644.548.466 1.066 1.219 1.613 2.016.751 1.093 1.687 2.455 2.46 2.57.496.083 1.631-.907 2.24-1.432.339-.293.659-.57.942-.765.639-.439 1.032-1.373 1.449-2.36.346-.822.714-1.657 1.263-2.347-1.138-4.988-3.887-9.369-7.685-12.577zm7.962 15.563c-.491 1.164-.998 2.367-2.036 3.081a11.18 11.18 0 0 0-.799.654c-1.037.895-2.332 2.008-3.584 1.821-1.494-.223-2.609-1.844-3.591-3.275a35.238 35.238 0 0 0-.579-.825l.005.08c.052 1.049-.123 1.723-.567 2.188-.548.574-1.291.611-2.084.616.108.178.146.254.175.328.952 2.586-.322 4.883-1.445 6.909l-.223.402c-.133.243-.356.763-.613 1.365-1.575 3.685-3.307 7.307-5.629 7.583-.085.01-.176.016-.271.016-.648 0-1.513-.277-2.354-1.399-1.18-1.575-1.1-3.668-1.024-5.693.043-1.127.084-2.192-.106-3.041-.453-2.032-1.449-2.291-3.97-2.469-3.255-.231-4.092-1.925-4.301-2.914-.526-2.492 1.738-5.742 4.113-6.983.258-.134.544-.242.851-.324.8-.22 1.748-.275 2.531-.145 1.035.165 1.49.654 1.857 1.047.163.175.316.341.535.497.146.105.843.24 2.055-.015 1.428-.3 2.544-.926 2.799-1.359.039-.066.082-.331-.035-.722-.121-.401-.328-.645-.413-.687-.273-.134-.927.059-1.453.212-.573.168-1.167.344-1.744.307-.824-.047-1.487-.55-2.073-.993-.447-.339-.905-.688-1.221-.647-.289.041-.71.29-1.117.532-.456.27-.927.55-1.447.702-.491.142-.935.15-1.359.027-.832-.246-1.099-.729-1.176-1.091-.216-1.009.809-1.911 1.929-2.859-.552-.159-1.036-.44-1.277-.953-.287-.61-.124-1.317.484-2.099 1.02-1.315 2.764-.674 3.7-.329l.18.066c.121-.212.209-.414.3-.624.271-.627.579-1.338 1.711-2.02 1.322-.796 2.775-.573 4.058-.377.619.096 1.204.186 1.728.159 1.345-.069 2.64-.937 4.011-1.857 1.142-.766 2.309-1.547 3.588-1.922a23.453 23.453 0 0 0-13.262-4.094A23.422 23.422 0 0 0 19.02 4.874c.094.174.291.451.485.724.403.565.783 1.098.922 1.568.432 1.474-.405 1.968-.854 2.233-.212.125-.38.224-.512.419-.175.259-.188.357-.188.361l.197.263c.158.212.373.502.565.895.66 1.349 1.041 5.339-.842 6.333-.18.095-.418.447-.61.73-.405.599-.91 1.344-1.819 1.344h-.013c-.912-.009-1.691-.598-2.378-1.118-.18-.136-.422-.319-.604-.432-.423.701-.595.918-.932 1.325-.08.097-.173.208-.284.347-.232.51-.314 2.93-.203 3.551.262 1.497 1.989 2.964 3.02 3.84.435.367.923.405 1.684.436 1.859.074 3.435.458 3.891 4.403.199 1.707-1.008 3.471-2.072 5.028-.413.604-.803 1.175-1.031 1.635-.739 1.498-.414 2.8-.003 4.449.076.306.153.619.227.941a23.456 23.456 0 0 0 13.196 4.046c12.936 0 23.46-10.438 23.46-23.269 0-.859-.055-1.706-.147-2.541l-.17.396zM40.873 42.143a.831.831 0 0 1-.835-.828c0-.428.327-.78.747-.824.261-.235.701-1.421.701-2.679.001-.385-.045-.625-.083-.75a.828.828 0 0 1-.558-.781c0-.457.374-.828.835-.828.27 0 .934.095 1.27.981.137.362.206.826.206 1.378 0 1.413-.558 4.331-2.283 4.331zM21.812 7.041c.124-.219.243-.43.338-.625.618-1.262 2.782-1.933 4.107-1.933.166 0 .325.01.469.03.752.102 1.31.498 1.571 1.115.319.755.132 1.737-.489 2.563-.526.7-1.292 1.065-1.968 1.387-.406.194-.79.377-1.077.606l-.161.132c-.514.426-1.219 1.008-2.016 1.008-.397 0-1.122-.151-1.521-1.16-.418-1.058.228-2.203.747-3.123zm.849 2.609c.244-.087.691-.457.872-.606l.181-.148c.438-.351.929-.585 1.403-.811.551-.262 1.072-.511 1.353-.883.297-.397.347-.792.287-.934-.03-.069-.156-.101-.258-.114a1.85 1.85 0 0 0-.242-.015c-1.05 0-2.399.581-2.604.998a13.84 13.84 0 0 1-.384.713c-.291.516-.779 1.381-.65 1.709.016.039.03.068.042.091z"/></svg>